HIERARCHY
ROOT Hips
{
	OFFSET 0.000000 0.000000 0.000000
	CHANNELS 6 Xposition Yposition Zposition Zrotation Yrotation Xrotation 
	JOINT LHipJoint
	{
		OFFSET 0.000000 0.000000 0.000000
		CHANNELS 3 Zrotation Yrotation Xrotation
		JOINT LeftUpLeg
		{
			OFFSET 1.363060 -1.794630 0.839290
			CHANNELS 3 Zrotation Yrotation Xrotation
			JOINT LeftLeg
			{
				OFFSET 2.448110 -6.726130 0.000000
				CHANNELS 3 Zrotation Yrotation Xrotation
				JOINT LeftFoot
				{
					OFFSET 2.562200 -7.039590 0.000000
					CHANNELS 3 Zrotation Yrotation Xrotation
					JOINT LeftToeBase
					{
						OFFSET 0.157640 -0.433110 2.322550
						CHANNELS 3 Zrotation Yrotation Xrotation
						End Site
						{
							OFFSET 0.000000 0.000000 0.000000
						}
					}
				}
			}
		}
	}
	JOINT RHipJoint
	{
		OFFSET 0.000000 0.000000 0.000000
		CHANNELS 3 Zrotation Yrotation Xrotation
		JOINT RightUpLeg
		{
			OFFSET -1.305520 -1.794630 0.839290
			CHANNELS 3 Zrotation Yrotation Xrotation
			JOINT RightLeg
			{
				OFFSET -2.542530 -6.985550 0.000000
				CHANNELS 3 Zrotation Yrotation Xrotation
				JOINT RightFoot
				{
					OFFSET -2.568260 -7.056230 0.000000
					CHANNELS 3 Zrotation Yrotation Xrotation
					JOINT RightToeBase
					{
						OFFSET -0.164730 -0.452590 2.363150
						CHANNELS 3 Zrotation Yrotation Xrotation
						End Site
						{
							OFFSET 0.000000 0.000000 0.000000
						}
					}
				}
			}
		}
	}
	JOINT LowerBack
	{
		OFFSET 0.000000 0.000000 0.000000
		CHANNELS 3 Zrotation Yrotation Xrotation
		JOINT Spine
		{
			OFFSET 0.028270 2.035590 -0.193380
			CHANNELS 3 Zrotation Yrotation Xrotation
			JOINT Spine1
			{
				OFFSET 0.056720 2.048850 -0.042750
				CHANNELS 3 Zrotation Yrotation Xrotation
				JOINT Neck
				{
					OFFSET 0.000000 0.000000 0.000000
					CHANNELS 3 Zrotation Yrotation Xrotation
					JOINT Neck1
					{
						OFFSET -0.054170 1.746240 0.172020
						CHANNELS 3 Zrotation Yrotation Xrotation
						JOINT Head
						{
							OFFSET 0.104070 1.761360 -0.123970
							CHANNELS 3 Zrotation Yrotation Xrotation
							End Site
							{
								OFFSET 0.000000 0.000000 0.000000
							}
						}
					}
				}
				JOINT LeftShoulder
				{
					OFFSET 0.000000 0.000000 0.000000
					CHANNELS 3 Zrotation Yrotation Xrotation
					JOINT LeftArm
					{
						OFFSET 3.362410 1.200890 -0.311210
						CHANNELS 3 Zrotation Yrotation Xrotation
						JOINT LeftForeArm
						{
							OFFSET 4.983000 -0.000000 -0.000000
							CHANNELS 3 Zrotation Yrotation Xrotation
							JOINT LeftHand
							{
								OFFSET 3.483560 -0.000000 -0.000000
								CHANNELS 3 Zrotation Yrotation Xrotation
								JOINT LeftFingerBase
								{
									OFFSET 0.000000 0.000000 0.000000
									CHANNELS 3 Zrotation Yrotation Xrotation
									JOINT LeftHandIndex1
									{
										OFFSET 0.715260 -0.000000 -0.000000
										CHANNELS 3 Zrotation Yrotation Xrotation
										End Site
										{
											OFFSET 0.000000 0.000000 0.000000
										}
									}
								}
								JOINT LThumb
								{
									OFFSET 0.000000 0.000000 0.000000
									CHANNELS 3 Zrotation Yrotation Xrotation
									End Site
									{
										OFFSET 0.000000 0.000000 0.000000
									}
								}
							}
						}
					}
				}
				JOINT RightShoulder
				{
					OFFSET 0.000000 0.000000 0.000000
					CHANNELS 3 Zrotation Yrotation Xrotation
					JOINT RightArm
					{
						OFFSET -3.136600 1.374050 -0.404650
						CHANNELS 3 Zrotation Yrotation Xrotation
						JOINT RightForeArm
						{
							OFFSET -5.241900 -0.000000 -0.000000
							CHANNELS 3 Zrotation Yrotation Xrotation
							JOINT RightHand
							{
								OFFSET -3.444170 -0.000000 -0.000000
								CHANNELS 3 Zrotation Yrotation Xrotation
								JOINT RightFingerBase
								{
									OFFSET 0.000000 0.000000 0.000000
									CHANNELS 3 Zrotation Yrotation Xrotation
									JOINT RightHandIndex1
									{
										OFFSET -0.622530 -0.000000 -0.000000
										CHANNELS 3 Zrotation Yrotation Xrotation
										End Site
										{
											OFFSET 0.000000 0.000000 0.000000
										}
									}
								}
								JOINT RThumb
								{
									OFFSET 0.000000 0.000000 0.000000
									CHANNELS 3 Zrotation Yrotation Xrotation
									End Site
									{
										OFFSET 0.000000 0.000000 0.000000
									}
								}
							}
						}
					}
				}
			}
		}
	}
}
MOTION
Frames: 6
Frame Time: 0.008333
-13.165953 14.914198 -1.744216 169.452794 59.853876 -161.369089 3.980155 0.691921 -1.872379 -14.091331 7.669147 -21.565954 7.409820 16.770120 53.135476 1.224980 -8.682154 -5.545377 6.024700 -14.452300 -45.080800 -7.421414 -0.474863 -0.976827 24.288030 4.502571 -74.062124 -25.174118 -22.719232 104.576294 0.965463 -9.936992 -12.819854 -4.416200 12.694600 -38.235800 -9.202473 0.900798 33.683649 0.308935 1.230256 -1.018523 5.921266 0.193448 0.093358 -13.701147 -15.623390 1.019853 21.099346 -25.178762 -14.202233 17.103500 -6.623200 -5.829900 -1.541171 -0.754729 2.736418 -53.716279 -30.059901 -10.152533 55.400530 -52.315270 -37.167298 0.390969 -0.510845 -69.853119 -22.140028 44.075586 -15.738900 -7.125000 0.000000 0.000000 -70.755300 61.147500 -37.484900 -1.873019 1.637324 2.503637 76.071997 9.165651 8.649948 -33.482943 43.959516 -17.244037 0.593915 -0.820770 -2.526813 -60.866705 37.793589 -48.964000 7.125000 0.000000 0.000000 -12.843800 28.082900 -17.663500 
-12.700691 14.938697 -2.071304 168.241435 60.487642 -161.964352 3.842065 0.749874 -1.766941 -14.853120 7.900387 -18.544652 6.366147 15.855846 49.624987 0.943548 -7.766659 -1.338910 5.435100 -13.857600 -42.670100 -7.392648 -0.486953 -0.981919 24.664597 6.268669 -76.819091 -23.789132 -23.181675 100.652732 0.880675 -9.399619 -12.632025 -4.777400 13.128700 -39.852200 -8.596062 0.814922 33.103076 0.251696 1.158860 -1.069607 5.126105 0.237268 -0.010983 -13.585987 -15.362061 1.101820 20.003411 -24.262642 -13.609994 16.570900 -6.330700 -5.971000 -1.606065 -0.530677 2.775534 -55.206470 -26.328320 -10.412502 57.743143 -53.193472 -39.369528 0.336148 -0.319795 -68.020406 -26.786807 42.015744 -18.730400 -7.125000 0.000000 0.000000 -71.124800 58.822200 -34.031200 -1.951334 1.685735 2.493518 76.077992 7.527669 7.355962 -33.637990 44.091561 -17.436473 0.678193 -0.784429 -6.361557 -60.039046 37.188072 -47.635700 7.125000 0.000000 0.000000 -12.741800 26.892600 -17.413600 
-12.221709 14.953505 -2.412765 166.724495 61.085594 -162.797989 3.711589 0.814460 -1.653555 -15.693668 7.742359 -15.308730 5.319399 14.836040 45.890486 0.702504 -6.212818 3.434544 4.676300 -13.009700 -39.404800 -7.361526 -0.490352 -1.027776 25.017077 7.603690 -79.166868 -22.221207 -23.536142 96.318936 0.657717 -8.244894 -12.877108 -5.236500 13.645300 -41.834600 -8.088816 0.721820 32.314124 0.203029 1.083958 -1.109909 4.502074 0.261656 0.028888 -13.736438 -15.389192 1.155484 19.460100 -24.136254 -13.294326 16.340400 -6.316500 -5.861500 -1.669102 -0.326442 2.786231 -56.953455 -22.656319 -10.810417 59.226205 -53.822855 -40.773590 0.280430 -0.167888 -65.799529 -30.750861 40.482288 -21.246000 -7.125000 0.000000 0.000000 -71.862300 56.996500 -31.436500 -2.053617 1.662235 2.485907 76.066721 5.891019 6.127209 -33.884757 44.305504 -17.705800 0.752385 -0.746004 -9.722537 -59.830037 37.224544 -47.431900 7.125000 0.000000 0.000000 -12.649800 26.775100 -17.272800 
-11.720842 14.991724 -2.757493 165.537262 61.590519 -163.323205 3.605433 0.866009 -1.546537 -16.268048 7.302239 -11.977820 4.319099 13.703502 41.967348 0.549401 -4.051285 8.189508 4.067000 -12.249000 -36.618500 -7.323553 -0.509469 -1.074073 25.839355 8.696989 -81.170618 -20.433224 -23.772497 91.465326 0.389074 -6.698819 -12.974065 -5.760200 14.191900 -44.011500 -7.094313 0.566388 31.583091 0.113667 0.969058 -1.171155 3.237623 0.329405 -0.004663 -13.397195 -15.396265 1.018692 18.615332 -23.754900 -12.706439 15.793300 -6.303700 -5.658500 -1.736353 -0.119043 2.737363 -58.302908 -18.948563 -11.257480 60.133107 -54.303234 -41.564592 0.214638 -0.048485 -64.157014 -35.265438 38.662038 -23.981100 -7.125000 0.000000 0.000000 -72.609800 54.982700 -28.195300 -2.207318 1.714698 2.465636 76.540248 4.353381 4.826081 -33.943183 44.416544 -17.854749 0.804569 -0.726121 -11.979623 -59.952165 37.288886 -47.640400 7.125000 0.000000 0.000000 -12.688500 26.943400 -17.342900 
-11.228685 15.004028 -3.093510 164.124486 62.051782 -164.154695 3.510190 0.949186 -1.432237 -16.882812 6.442776 -8.645880 3.453811 12.601929 38.273856 0.493566 -2.080383 11.796018 4.089000 -12.277900 -36.722100 -7.309576 -0.478315 -1.160389 26.881545 9.540013 -82.479042 -18.613219 -23.842237 86.584821 0.108430 -5.065320 -13.196463 -6.226900 14.644700 -45.885600 -6.599705 0.572026 30.961552 0.100643 1.073859 -1.205266 2.887923 0.386349 0.021448 -13.343844 -15.310065 0.873934 17.416982 -23.122353 -12.206645 15.034800 -6.123600 -5.712800 -1.678745 0.086204 2.691232 -60.442241 -15.315845 -11.503280 61.926637 -54.975051 -43.172967 0.137341 0.054687 -65.873419 -35.886335 38.992597 -24.591800 -7.125000 0.000000 0.000000 -73.288700 54.914400 -28.594000 -2.206682 1.741466 2.454264 76.217843 3.079090 3.520757 -33.780195 44.345682 -17.827445 0.853354 -0.702918 -13.301274 -60.342696 37.382858 -48.173200 7.125000 0.000000 0.000000 -12.863500 27.306900 -17.623200 
-10.721176 15.023627 -3.423755 162.248347 62.206702 -165.825427 3.458597 1.040415 -1.322736 -17.674130 5.219101 -5.030398 2.746559 11.576624 35.054791 0.531864 -1.283212 14.194058 4.703800 -13.042300 -39.527000 -7.291088 -0.432225 -1.280758 28.037848 9.666201 -83.069292 -16.799296 -23.729928 81.733900 -0.296838 -2.534251 -13.495331 -6.457800 14.857800 -46.792600 -6.235528 0.537817 30.844202 0.068938 1.074718 -1.219610 2.461642 0.429330 -0.032164 -13.418081 -15.403347 0.929004 16.909932 -23.060722 -12.064529 14.742200 -6.126100 -5.685700 -1.658255 0.235760 2.656347 -62.342558 -11.683207 -12.180799 63.794277 -55.632321 -44.836051 0.046926 0.155587 -69.050964 -36.854085 39.851620 -25.733700 -7.125000 0.000000 0.000000 -74.870800 55.012500 -30.083100 -2.261564 1.761123 2.458581 76.217201 1.855107 2.256969 -33.852256 44.420229 -17.960835 0.880096 -0.687365 -13.924866 -60.644465 37.450792 -48.577300 7.125000 0.000000 0.000000 -12.998900 27.579800 -17.839800 
